<mxfile host="app.diagrams.net" modified="2022-09-29T12:35:09.647Z" agent="5.0 (Macintosh; Intel Mac OS X 10_15_7) AppleWebKit/537.36 (KHTML, like Gecko) Chrome/105.0.0.0 Safari/537.36" etag="XsZhTL37YLBWkgZsdoxD" version="20.3.7" type="github">
  <diagram id="C5RBs43oDa-KdzZeNtuy" name="Page-1">
    <mxGraphModel dx="1183" dy="513" grid="1" gridSize="10" guides="1" tooltips="1" connect="1" arrows="1" fold="1" page="1" pageScale="1" pageWidth="827" pageHeight="1169" math="0" shadow="0">
      <root>
        <mxCell id="WIyWlLk6GJQsqaUBKTNV-0" />
        <mxCell id="WIyWlLk6GJQsqaUBKTNV-1" parent="WIyWlLk6GJQsqaUBKTNV-0" />
        <mxCell id="wTWxBhQJtMiUSHwC8iwK-25" value="&lt;div style=&quot;color: rgb(212, 212, 212); background-color: rgb(30, 30, 30); font-family: Menlo, Monaco, &amp;quot;Courier New&amp;quot;, monospace; line-height: 18px;&quot;&gt;&lt;br&gt;&lt;/div&gt;" style="text;html=1;align=center;verticalAlign=middle;resizable=0;points=[];autosize=1;strokeColor=none;fillColor=none;" parent="WIyWlLk6GJQsqaUBKTNV-1" vertex="1">
          <mxGeometry x="160" y="415" width="20" height="30" as="geometry" />
        </mxCell>
        <mxCell id="1HuzILqyLgFqSH06gg-U-0" value="Animals" style="swimlane;fontStyle=1;align=center;verticalAlign=top;childLayout=stackLayout;horizontal=1;startSize=26;horizontalStack=0;resizeParent=1;resizeParentMax=0;resizeLast=0;collapsible=1;marginBottom=0;" vertex="1" parent="WIyWlLk6GJQsqaUBKTNV-1">
          <mxGeometry x="220" y="140" width="260" height="218" as="geometry" />
        </mxCell>
        <mxCell id="1HuzILqyLgFqSH06gg-U-1" value="- name: str&#xa;-  age: int&#xa;-  food: list&#xa;&#xa;" style="text;strokeColor=none;fillColor=none;align=left;verticalAlign=top;spacingLeft=4;spacingRight=4;overflow=hidden;rotatable=0;points=[[0,0.5],[1,0.5]];portConstraint=eastwest;" vertex="1" parent="1HuzILqyLgFqSH06gg-U-0">
          <mxGeometry y="26" width="260" height="74" as="geometry" />
        </mxCell>
        <mxCell id="1HuzILqyLgFqSH06gg-U-2" value="" style="line;strokeWidth=1;fillColor=none;align=left;verticalAlign=middle;spacingTop=-1;spacingLeft=3;spacingRight=3;rotatable=0;labelPosition=right;points=[];portConstraint=eastwest;strokeColor=inherit;" vertex="1" parent="1HuzILqyLgFqSH06gg-U-0">
          <mxGeometry y="100" width="260" height="8" as="geometry" />
        </mxCell>
        <mxCell id="1HuzILqyLgFqSH06gg-U-3" value="&#xa;+ print_menu()&#xa;+ print_product()&#xa;+add_product()&#xa;+search_product()&#xa;" style="text;strokeColor=none;fillColor=none;align=left;verticalAlign=top;spacingLeft=4;spacingRight=4;overflow=hidden;rotatable=0;points=[[0,0.5],[1,0.5]];portConstraint=eastwest;" vertex="1" parent="1HuzILqyLgFqSH06gg-U-0">
          <mxGeometry y="108" width="260" height="110" as="geometry" />
        </mxCell>
        <mxCell id="1HuzILqyLgFqSH06gg-U-4" value="Fish" style="swimlane;fontStyle=1;align=center;verticalAlign=top;childLayout=stackLayout;horizontal=1;startSize=26;horizontalStack=0;resizeParent=1;resizeParentMax=0;resizeLast=0;collapsible=1;marginBottom=0;" vertex="1" parent="WIyWlLk6GJQsqaUBKTNV-1">
          <mxGeometry x="160" y="440" width="260" height="208" as="geometry" />
        </mxCell>
        <mxCell id="1HuzILqyLgFqSH06gg-U-5" value="-  name: str&#xa;-  age: int&#xa;-  food: list&#xa;&#xa;" style="text;strokeColor=none;fillColor=none;align=left;verticalAlign=top;spacingLeft=4;spacingRight=4;overflow=hidden;rotatable=0;points=[[0,0.5],[1,0.5]];portConstraint=eastwest;" vertex="1" parent="1HuzILqyLgFqSH06gg-U-4">
          <mxGeometry y="26" width="260" height="64" as="geometry" />
        </mxCell>
        <mxCell id="1HuzILqyLgFqSH06gg-U-6" value="" style="line;strokeWidth=1;fillColor=none;align=left;verticalAlign=middle;spacingTop=-1;spacingLeft=3;spacingRight=3;rotatable=0;labelPosition=right;points=[];portConstraint=eastwest;strokeColor=inherit;" vertex="1" parent="1HuzILqyLgFqSH06gg-U-4">
          <mxGeometry y="90" width="260" height="8" as="geometry" />
        </mxCell>
        <mxCell id="1HuzILqyLgFqSH06gg-U-7" value="+ menu()&#xa;+ print_menu()&#xa;+ print_product()&#xa;+add_product()&#xa;+search_product()&#xa;" style="text;strokeColor=none;fillColor=none;align=left;verticalAlign=top;spacingLeft=4;spacingRight=4;overflow=hidden;rotatable=0;points=[[0,0.5],[1,0.5]];portConstraint=eastwest;" vertex="1" parent="1HuzILqyLgFqSH06gg-U-4">
          <mxGeometry y="98" width="260" height="110" as="geometry" />
        </mxCell>
        <mxCell id="1HuzILqyLgFqSH06gg-U-8" value="Dog" style="swimlane;fontStyle=1;align=center;verticalAlign=top;childLayout=stackLayout;horizontal=1;startSize=26;horizontalStack=0;resizeParent=1;resizeParentMax=0;resizeLast=0;collapsible=1;marginBottom=0;" vertex="1" parent="WIyWlLk6GJQsqaUBKTNV-1">
          <mxGeometry x="820" y="190" width="260" height="228" as="geometry" />
        </mxCell>
        <mxCell id="1HuzILqyLgFqSH06gg-U-9" value="- name: str&#xa;-  age: int&#xa;-  food: list&#xa;&#xa;" style="text;strokeColor=none;fillColor=none;align=left;verticalAlign=top;spacingLeft=4;spacingRight=4;overflow=hidden;rotatable=0;points=[[0,0.5],[1,0.5]];portConstraint=eastwest;" vertex="1" parent="1HuzILqyLgFqSH06gg-U-8">
          <mxGeometry y="26" width="260" height="54" as="geometry" />
        </mxCell>
        <mxCell id="1HuzILqyLgFqSH06gg-U-10" value="" style="line;strokeWidth=1;fillColor=none;align=left;verticalAlign=middle;spacingTop=-1;spacingLeft=3;spacingRight=3;rotatable=0;labelPosition=right;points=[];portConstraint=eastwest;strokeColor=inherit;" vertex="1" parent="1HuzILqyLgFqSH06gg-U-8">
          <mxGeometry y="80" width="260" height="38" as="geometry" />
        </mxCell>
        <mxCell id="1HuzILqyLgFqSH06gg-U-11" value="+ menu()&#xa;+ print_menu()&#xa;+ print_product()&#xa;+add_product()&#xa;+search_product()&#xa;" style="text;strokeColor=none;fillColor=none;align=left;verticalAlign=top;spacingLeft=4;spacingRight=4;overflow=hidden;rotatable=0;points=[[0,0.5],[1,0.5]];portConstraint=eastwest;" vertex="1" parent="1HuzILqyLgFqSH06gg-U-8">
          <mxGeometry y="118" width="260" height="110" as="geometry" />
        </mxCell>
        <mxCell id="1HuzILqyLgFqSH06gg-U-12" value="App" style="swimlane;fontStyle=1;align=center;verticalAlign=top;childLayout=stackLayout;horizontal=1;startSize=26;horizontalStack=0;resizeParent=1;resizeParentMax=0;resizeLast=0;collapsible=1;marginBottom=0;" vertex="1" parent="WIyWlLk6GJQsqaUBKTNV-1">
          <mxGeometry x="510" y="190" width="260" height="218" as="geometry" />
        </mxCell>
        <mxCell id="1HuzILqyLgFqSH06gg-U-13" value="- name: str&#xa;- age: int&#xa;- food: list&#xa;&#xa;" style="text;strokeColor=none;fillColor=none;align=left;verticalAlign=top;spacingLeft=4;spacingRight=4;overflow=hidden;rotatable=0;points=[[0,0.5],[1,0.5]];portConstraint=eastwest;" vertex="1" parent="1HuzILqyLgFqSH06gg-U-12">
          <mxGeometry y="26" width="260" height="74" as="geometry" />
        </mxCell>
        <mxCell id="1HuzILqyLgFqSH06gg-U-14" value="" style="line;strokeWidth=1;fillColor=none;align=left;verticalAlign=middle;spacingTop=-1;spacingLeft=3;spacingRight=3;rotatable=0;labelPosition=right;points=[];portConstraint=eastwest;strokeColor=inherit;" vertex="1" parent="1HuzILqyLgFqSH06gg-U-12">
          <mxGeometry y="100" width="260" height="8" as="geometry" />
        </mxCell>
        <mxCell id="1HuzILqyLgFqSH06gg-U-15" value="+ menu()&#xa;+ print_menu()&#xa;+ print_product()&#xa;+add_product()&#xa;+search_product()&#xa;" style="text;strokeColor=none;fillColor=none;align=left;verticalAlign=top;spacingLeft=4;spacingRight=4;overflow=hidden;rotatable=0;points=[[0,0.5],[1,0.5]];portConstraint=eastwest;" vertex="1" parent="1HuzILqyLgFqSH06gg-U-12">
          <mxGeometry y="108" width="260" height="110" as="geometry" />
        </mxCell>
        <mxCell id="1HuzILqyLgFqSH06gg-U-16" value="Cow" style="swimlane;fontStyle=1;align=center;verticalAlign=top;childLayout=stackLayout;horizontal=1;startSize=26;horizontalStack=0;resizeParent=1;resizeParentMax=0;resizeLast=0;collapsible=1;marginBottom=0;" vertex="1" parent="WIyWlLk6GJQsqaUBKTNV-1">
          <mxGeometry x="540" y="445" width="260" height="208" as="geometry" />
        </mxCell>
        <mxCell id="1HuzILqyLgFqSH06gg-U-17" value="-  name: str&#xa;-  age: int&#xa;-  food: list&#xa;&#xa;" style="text;strokeColor=none;fillColor=none;align=left;verticalAlign=top;spacingLeft=4;spacingRight=4;overflow=hidden;rotatable=0;points=[[0,0.5],[1,0.5]];portConstraint=eastwest;" vertex="1" parent="1HuzILqyLgFqSH06gg-U-16">
          <mxGeometry y="26" width="260" height="64" as="geometry" />
        </mxCell>
        <mxCell id="1HuzILqyLgFqSH06gg-U-18" value="" style="line;strokeWidth=1;fillColor=none;align=left;verticalAlign=middle;spacingTop=-1;spacingLeft=3;spacingRight=3;rotatable=0;labelPosition=right;points=[];portConstraint=eastwest;strokeColor=inherit;" vertex="1" parent="1HuzILqyLgFqSH06gg-U-16">
          <mxGeometry y="90" width="260" height="8" as="geometry" />
        </mxCell>
        <mxCell id="1HuzILqyLgFqSH06gg-U-19" value="+ menu()&#xa;+ print_menu()&#xa;+ print_product()&#xa;+add_product()&#xa;+search_product()&#xa;" style="text;strokeColor=none;fillColor=none;align=left;verticalAlign=top;spacingLeft=4;spacingRight=4;overflow=hidden;rotatable=0;points=[[0,0.5],[1,0.5]];portConstraint=eastwest;" vertex="1" parent="1HuzILqyLgFqSH06gg-U-16">
          <mxGeometry y="98" width="260" height="110" as="geometry" />
        </mxCell>
        <mxCell id="1HuzILqyLgFqSH06gg-U-20" value="Cat" style="swimlane;fontStyle=1;align=center;verticalAlign=top;childLayout=stackLayout;horizontal=1;startSize=26;horizontalStack=0;resizeParent=1;resizeParentMax=0;resizeLast=0;collapsible=1;marginBottom=0;" vertex="1" parent="WIyWlLk6GJQsqaUBKTNV-1">
          <mxGeometry x="840" y="445" width="260" height="198" as="geometry" />
        </mxCell>
        <mxCell id="1HuzILqyLgFqSH06gg-U-21" value="-  name: str&#xa;-  age: int&#xa;-  food: list&#xa;&#xa;" style="text;strokeColor=none;fillColor=none;align=left;verticalAlign=top;spacingLeft=4;spacingRight=4;overflow=hidden;rotatable=0;points=[[0,0.5],[1,0.5]];portConstraint=eastwest;" vertex="1" parent="1HuzILqyLgFqSH06gg-U-20">
          <mxGeometry y="26" width="260" height="54" as="geometry" />
        </mxCell>
        <mxCell id="1HuzILqyLgFqSH06gg-U-22" value="" style="line;strokeWidth=1;fillColor=none;align=left;verticalAlign=middle;spacingTop=-1;spacingLeft=3;spacingRight=3;rotatable=0;labelPosition=right;points=[];portConstraint=eastwest;strokeColor=inherit;" vertex="1" parent="1HuzILqyLgFqSH06gg-U-20">
          <mxGeometry y="80" width="260" height="8" as="geometry" />
        </mxCell>
        <mxCell id="1HuzILqyLgFqSH06gg-U-23" value="+ menu()&#xa;+ print_menu()&#xa;+ print_product()&#xa;+add_product()&#xa;+search_product()&#xa;" style="text;strokeColor=none;fillColor=none;align=left;verticalAlign=top;spacingLeft=4;spacingRight=4;overflow=hidden;rotatable=0;points=[[0,0.5],[1,0.5]];portConstraint=eastwest;" vertex="1" parent="1HuzILqyLgFqSH06gg-U-20">
          <mxGeometry y="88" width="260" height="110" as="geometry" />
        </mxCell>
        <mxCell id="1HuzILqyLgFqSH06gg-U-24" value="Main" style="swimlane;fontStyle=1;align=center;verticalAlign=top;childLayout=stackLayout;horizontal=1;startSize=26;horizontalStack=0;resizeParent=1;resizeParentMax=0;resizeLast=0;collapsible=1;marginBottom=0;" vertex="1" parent="WIyWlLk6GJQsqaUBKTNV-1">
          <mxGeometry x="340" y="670" width="260" height="198" as="geometry" />
        </mxCell>
        <mxCell id="1HuzILqyLgFqSH06gg-U-25" value="-  name: str&#xa;-  age: int&#xa;- food: list&#xa;&#xa;" style="text;strokeColor=none;fillColor=none;align=left;verticalAlign=top;spacingLeft=4;spacingRight=4;overflow=hidden;rotatable=0;points=[[0,0.5],[1,0.5]];portConstraint=eastwest;" vertex="1" parent="1HuzILqyLgFqSH06gg-U-24">
          <mxGeometry y="26" width="260" height="54" as="geometry" />
        </mxCell>
        <mxCell id="1HuzILqyLgFqSH06gg-U-26" value="" style="line;strokeWidth=1;fillColor=none;align=left;verticalAlign=middle;spacingTop=-1;spacingLeft=3;spacingRight=3;rotatable=0;labelPosition=right;points=[];portConstraint=eastwest;strokeColor=inherit;" vertex="1" parent="1HuzILqyLgFqSH06gg-U-24">
          <mxGeometry y="80" width="260" height="8" as="geometry" />
        </mxCell>
        <mxCell id="1HuzILqyLgFqSH06gg-U-27" value="+ menu()&#xa;+ print_menu()&#xa;+ print_product()&#xa;+add_product()&#xa;+search_product()&#xa;" style="text;strokeColor=none;fillColor=none;align=left;verticalAlign=top;spacingLeft=4;spacingRight=4;overflow=hidden;rotatable=0;points=[[0,0.5],[1,0.5]];portConstraint=eastwest;" vertex="1" parent="1HuzILqyLgFqSH06gg-U-24">
          <mxGeometry y="88" width="260" height="110" as="geometry" />
        </mxCell>
      </root>
    </mxGraphModel>
  </diagram>
</mxfile>
